<?xml version="1.0" standalone="no"?>
<!DOCTYPE svg PUBLIC "-//W3C//DTD SVG 20010904//EN"
 "http://www.w3.org/TR/2001/REC-SVG-20010904/DTD/svg10.dtd">
<svg version="1.0" xmlns="http://www.w3.org/2000/svg"
 width="1041.000000pt" height="1041.000000pt" viewBox="0 0 1041.000000 1041.000000"
 preserveAspectRatio="xMidYMid meet">
<metadata>
Created by potrace 1.11, written by Peter Selinger 2001-2013
</metadata>
<g transform="translate(0.000000,1041.000000) scale(0.100000,-0.100000)"
fill="#000000" stroke="none">
<path d="M3775 8053 c-11 -2 -38 -11 -60 -19 l-41 -15 1 -57 c1 -31 6 -67 13
-79 14 -26 15 -36 3 -29 -13 8 -27 -34 -30 -89 -2 -27 -5 -53 -7 -57 -3 -4 9
-14 26 -23 38 -20 38 -23 -1 -17 l-32 5 6 -39 c4 -22 9 -50 12 -63 2 -13 5
-51 6 -83 2 -57 3 -58 31 -58 25 0 157 -28 166 -36 2 -1 -3 -15 -11 -31 -8
-15 -18 -48 -22 -73 -4 -25 -14 -58 -22 -75 -21 -43 -24 -116 -9 -205 18 -100
37 -139 104 -211 29 -32 51 -62 48 -67 -3 -5 1 -17 8 -28 13 -17 11 -20 -23
-32 -20 -7 -52 -18 -71 -24 -19 -6 -75 -27 -124 -46 -84 -32 -98 -35 -235 -39
-107 -3 -150 -8 -162 -19 -8 -8 -27 -14 -40 -14 -14 0 -29 -4 -35 -9 -5 -5
-38 -19 -72 -31 -61 -21 -78 -21 -147 -5 -41 11 -122 12 -165 4 -88 -17 -162
-23 -470 -34 -102 -4 -205 -8 -230 -11 -25 -2 -89 -6 -144 -8 -54 -3 -106 -7
-115 -10 -9 -3 -33 -7 -53 -10 -44 -7 -146 -55 -194 -91 l-35 -26 -42 24 c-23
13 -82 48 -132 77 -49 29 -106 61 -125 71 -19 9 -155 76 -301 147 l-266 130
-58 72 c-72 90 -86 97 -172 81 -58 -10 -70 -16 -80 -38 -20 -42 -16 -94 9
-120 21 -22 160 -70 203 -70 42 0 92 -15 135 -41 25 -14 77 -43 115 -62 79
-41 185 -99 200 -110 6 -4 60 -33 120 -65 61 -32 133 -72 160 -90 28 -18 61
-36 75 -40 14 -4 50 -21 81 -38 l56 -30 -13 -36 c-24 -65 -26 -61 76 -136 100
-73 104 -75 133 -60 90 47 111 73 141 176 9 31 23 63 32 70 21 17 141 14 171
-4 5 -3 24 -8 43 -11 19 -3 67 -15 105 -27 39 -11 93 -26 120 -34 28 -8 70
-18 95 -21 25 -3 48 -8 52 -10 15 -10 217 -13 248 -4 33 10 46 1 98 -64 7 -9
23 -16 35 -17 12 0 33 -2 47 -5 43 -6 212 -16 295 -17 84 -1 179 7 255 23 57
12 151 12 168 1 8 -4 19 -19 25 -32 14 -26 42 -37 103 -38 48 -1 103 -19 193
-63 55 -27 68 -30 93 -20 27 10 35 7 96 -38 62 -45 180 -103 296 -145 26 -9
62 -29 80 -44 17 -15 49 -40 71 -55 22 -16 49 -38 61 -50 20 -20 63 -58 169
-147 81 -68 185 -172 205 -205 15 -24 18 -41 14 -80 -10 -82 10 -154 55 -198
42 -41 41 -32 26 -171 -10 -91 -14 -118 -19 -140 -20 -88 -26 -117 -31 -164
-3 -30 -8 -58 -11 -63 -3 -4 -7 -86 -9 -181 -3 -94 -7 -182 -9 -195 -3 -12 1
-41 9 -65 8 -23 22 -85 31 -137 60 -348 202 -670 428 -970 65 -86 274 -307
353 -373 320 -265 681 -421 1093 -472 107 -13 306 -6 435 16 429 73 807 327
1027 689 18 30 40 56 49 56 387 28 736 187 996 456 181 186 347 500 398 753
29 141 38 222 40 380 3 203 -4 289 -40 455 -38 173 -44 193 -108 360 -108 281
-276 537 -502 766 -137 139 -210 200 -356 296 -273 181 -558 288 -860 325 -77
9 -300 10 -384 1 -444 -48 -849 -295 -1092 -668 -31 -47 -57 -86 -57 -87 -1
-1 -28 -4 -61 -7 -134 -12 -268 -42 -394 -89 l-88 -33 -109 135 c-131 162
-153 196 -154 237 0 53 32 71 163 88 94 13 145 25 263 64 286 95 343 125 344
179 0 30 24 51 73 63 99 24 126 34 192 68 39 20 154 89 256 153 102 65 209
125 237 135 49 18 51 18 71 0 12 -11 35 -40 52 -67 33 -52 77 -79 163 -100 40
-10 50 -10 56 2 5 8 36 50 69 93 34 43 61 84 61 91 0 7 -12 34 -27 60 l-26 48
69 65 c78 73 314 296 418 395 52 50 79 67 107 72 94 16 142 90 102 156 -17 30
-24 34 -61 33 -53 -2 -64 -11 -128 -109 -51 -79 -87 -118 -174 -187 -25 -20
-54 -44 -66 -54 -12 -11 -52 -46 -89 -79 -37 -33 -75 -67 -84 -75 -59 -55
-167 -140 -178 -140 -8 0 -30 7 -50 15 -21 9 -68 23 -105 31 l-68 16 -227 -61
c-126 -34 -322 -88 -438 -120 -115 -33 -257 -67 -315 -76 -103 -17 -149 -34
-202 -76 -28 -23 -44 -24 -228 -20 -71 2 -104 -3 -205 -32 l-120 -35 -260 3
c-488 7 -493 8 -573 165 -29 58 -48 106 -43 108 25 8 88 62 101 86 18 34 7 54
-46 82 -21 11 -51 38 -66 60 l-27 39 45 43 c24 23 44 46 44 51 0 16 -26 29
-85 42 -86 18 -95 24 -95 65 0 38 -39 107 -69 124 -11 6 -18 16 -15 23 2 7 -2
40 -11 73 -16 63 -49 103 -88 105 -54 4 -106 -2 -147 -16 -24 -8 -45 -14 -46
-12 -2 2 -6 39 -8 83 -3 43 -9 102 -13 129 -5 28 -8 60 -7 73 2 29 -16 38
-108 58 -126 27 -128 27 -128 7 0 -14 -3 -12 -13 7 -14 27 -26 29 -120 16 -50
-6 -60 -5 -71 10 -14 18 -38 24 -71 17z m4333 -1691 c19 -1 32 -6 30 -11 -1
-5 -61 -70 -131 -144 -70 -75 -138 -148 -150 -164 -12 -15 -30 -34 -39 -41
-10 -7 -16 -18 -12 -23 3 -5 0 -8 -8 -7 -7 2 -12 -4 -10 -12 2 -8 1 -12 -3 -8
-8 8 -29 -11 -62 -56 -13 -16 -23 -27 -23 -24 0 4 -24 -19 -53 -49 l-54 -56
-27 74 c-16 41 -52 142 -81 224 -29 83 -58 163 -64 178 -10 27 -9 29 27 44 51
21 211 61 275 68 28 4 53 8 55 10 3 3 258 0 330 -3z m279 -61 c111 -31 265
-95 363 -149 105 -57 299 -189 300 -204 0 -5 -225 -145 -385 -238 -16 -10 -70
-43 -120 -73 -155 -95 -326 -197 -331 -197 -5 0 -3 46 11 285 3 55 8 132 10
170 11 204 18 333 20 360 1 17 3 40 4 53 1 28 8 28 128 -7z m-222 -158 c-11
-193 -15 -266 -20 -378 -3 -60 -8 -132 -10 -160 -2 -27 -7 -113 -10 -189 l-7
-140 24 17 c12 9 52 33 88 55 130 77 780 472 805 488 14 9 25 12 25 6 0 -6
-22 -55 -49 -109 -27 -54 -76 -154 -109 -223 -33 -69 -119 -246 -191 -394 -72
-148 -131 -273 -131 -277 0 -5 10 -7 23 -5 12 3 53 8 91 11 38 3 72 8 75 9 3
2 40 7 82 10 42 4 87 9 100 11 23 4 52 7 174 19 28 3 68 8 90 11 41 5 90 11
180 21 28 3 61 7 75 9 14 2 54 6 90 10 l65 6 -56 -53 c-55 -52 -103 -95 -304
-274 -100 -89 -269 -241 -430 -387 -25 -23 -34 -37 -25 -37 8 -1 24 -3 35 -6
11 -2 36 -6 55 -8 19 -3 49 -7 65 -10 51 -9 278 -45 320 -51 22 -3 65 -10 95
-15 30 -5 73 -12 95 -15 23 -3 50 -7 61 -9 11 -2 45 -7 77 -11 31 -4 57 -10
57 -14 0 -4 -156 -69 -347 -146 -192 -76 -372 -150 -401 -162 l-54 -24 38 -42
c20 -23 60 -67 88 -98 49 -53 200 -220 221 -244 6 -6 21 -23 35 -38 l24 -28
-29 5 c-34 6 -102 13 -190 21 -33 3 -71 7 -85 10 -14 2 -54 7 -90 10 -36 3
-80 8 -98 12 l-33 5 7 102 c10 137 5 333 -11 414 -2 11 -7 42 -11 69 -9 63 -9
66 -28 148 -17 71 -69 243 -86 280 -5 11 -21 49 -36 85 -113 264 -275 501
-489 715 -139 139 -263 238 -413 329 -109 66 -271 145 -357 174 -33 11 -72 25
-87 31 l-26 10 45 128 c25 70 60 170 78 222 l32 94 23 -59 c62 -166 160 -444
160 -453 0 -15 16 -14 32 2 93 95 232 251 230 258 -1 6 1 9 5 7 5 -3 18 6 30
19 12 13 21 23 19 23 -2 0 17 21 43 46 25 25 46 51 46 57 1 7 6 11 11 10 6 -1
53 43 103 98 51 54 95 99 98 99 2 0 2 -48 -2 -107z m-931 -130 c-112 -317
-103 -296 -128 -289 -33 10 -174 34 -241 41 -33 4 -62 8 -64 11 -16 15 199
246 299 321 68 51 181 122 196 122 6 1 -22 -92 -62 -206z m2025 -257 c76 -81
94 -103 148 -174 113 -150 265 -421 288 -515 7 -26 5 -27 -29 -28 -20 -1 -39
-2 -43 -3 -7 -2 -115 -15 -188 -22 -91 -9 -135 -14 -180 -20 -27 -4 -63 -8
-80 -9 -16 -2 -48 -5 -70 -9 -22 -3 -67 -8 -100 -11 -33 -3 -71 -8 -85 -10
-14 -2 -52 -6 -86 -10 -33 -3 -72 -8 -87 -10 -15 -3 -27 -3 -27 0 0 8 53 119
203 425 68 140 150 309 181 374 l57 119 31 -29 c17 -16 47 -46 67 -68z m-2384
-159 c17 -3 50 -8 75 -12 56 -8 192 -42 245 -60 111 -39 137 -50 223 -90 278
-132 508 -318 737 -596 58 -71 173 -257 230 -373 367 -747 240 -1584 -310
-2032 -169 -138 -428 -253 -630 -280 -27 -3 -59 -8 -70 -10 -30 -7 -289 -7
-322 0 -15 3 -50 8 -78 11 -77 9 -236 51 -343 91 -454 170 -851 528 -1089 984
-112 213 -196 479 -220 696 -15 131 -8 420 12 514 3 14 10 48 15 75 28 143
123 366 211 497 130 193 331 370 513 453 28 12 73 33 101 45 66 30 255 77 341
85 38 4 70 8 72 10 5 4 255 -3 287 -8z m2898 -774 c28 -115 42 -193 52 -286 7
-65 8 -302 1 -332 -3 -11 -5 -33 -5 -48 -1 -28 -2 -28 -48 -23 -53 7 -90 12
-178 27 -33 6 -76 13 -95 15 -34 4 -72 10 -115 18 -11 2 -40 7 -65 10 -25 3
-54 8 -65 10 -11 2 -40 7 -65 10 -25 3 -54 8 -65 10 -59 11 -121 19 -128 17
-22 -5 8 26 123 130 248 222 396 355 426 384 6 5 25 22 41 36 17 15 56 50 87
78 31 28 60 51 65 51 4 0 20 -48 34 -107z m10 -870 c-60 -235 -176 -456 -326
-618 l-60 -66 -25 28 c-14 15 -44 48 -66 73 -38 42 -170 188 -258 284 -30 33
-34 42 -22 49 8 5 155 65 327 134 171 69 337 136 367 148 80 34 80 34 63 -32z
m-948 -707 c28 -3 75 -8 105 -11 30 -3 71 -8 90 -10 19 -2 62 -7 95 -10 33 -3
69 -8 80 -10 11 -2 37 -4 58 -4 20 -1 37 -5 37 -10 0 -9 -116 -87 -200 -134
-99 -56 -304 -124 -427 -141 l-42 -5 24 63 c27 72 72 238 74 274 1 8 11 11 29
8 15 -3 50 -7 77 -10z"/>
<path d="M6740 4490 c-166 -45 -295 -165 -357 -334 -22 -62 -40 -196 -36 -267
11 -174 90 -345 215 -467 162 -159 349 -213 556 -162 115 29 173 61 255 143
109 107 157 232 162 422 5 157 -21 247 -112 387 -78 119 -217 229 -334 262
-89 26 -99 28 -189 32 -62 2 -105 -2 -160 -16z"/>
</g>
</svg>
